<svg width="60" height="61" viewBox="0 0 60 61" fill="none" xmlns="http://www.w3.org/2000/svg">
<circle cx="30" cy="30.5" r="24.375" fill="#FEF2CD"/>
<path d="M30 11.75C26.2916 11.75 22.6665 12.8497 19.5831 14.9099C16.4996 16.9702 14.0964 19.8986 12.6773 23.3247C11.2581 26.7508 10.8868 30.5208 11.6103 34.1579C12.3338 37.7951 14.1195 41.136 16.7418 43.7582C19.364 46.3805 22.7049 48.1662 26.3421 48.8897C29.9792 49.6132 33.7492 49.2419 37.1753 47.8227C40.6014 46.4036 43.5298 44.0004 45.5901 40.9169C47.6503 37.8335 48.75 34.2084 48.75 30.5C48.75 28.0377 48.265 25.5995 47.3227 23.3247C46.3805 21.0498 44.9994 18.9828 43.2583 17.2417C41.5172 15.5006 39.4502 14.1195 37.1753 13.1773C34.9005 12.235 32.4623 11.75 30 11.75ZM28.125 21.125C28.125 20.6277 28.3225 20.1508 28.6742 19.7992C29.0258 19.4475 29.5027 19.25 30 19.25C30.4973 19.25 30.9742 19.4475 31.3258 19.7992C31.6775 20.1508 31.875 20.6277 31.875 21.125V32.375C31.875 32.8723 31.6775 33.3492 31.3258 33.7008C30.9742 34.0525 30.4973 34.25 30 34.25C29.5027 34.25 29.0258 34.0525 28.6742 33.7008C28.3225 33.3492 28.125 32.8723 28.125 32.375V21.125ZM30 43.625C29.4437 43.625 28.9 43.46 28.4375 43.151C27.975 42.842 27.6145 42.4027 27.4016 41.8888C27.1887 41.3749 27.133 40.8094 27.2415 40.2638C27.3501 39.7182 27.6179 39.2171 28.0113 38.8238C28.4046 38.4304 28.9057 38.1626 29.4513 38.054C29.9969 37.9455 30.5624 38.0012 31.0763 38.2141C31.5902 38.427 32.0295 38.7874 32.3385 39.25C32.6476 39.7125 32.8125 40.2562 32.8125 40.8125C32.8125 41.5584 32.5162 42.2738 31.9887 42.8012C31.4613 43.3287 30.7459 43.625 30 43.625Z" fill="#FCBE03"/>
</svg>
